# xmcd
#
# Track frame offsets:
#	150
#	15716
#	32818
#	47493
#	61145
#	73518
#	87472
#	106001
#	121773
#	135727
#	149981
#	169859
#	185474
#	199495
#	216072
#	230100
#	245253
#	260706
#
# Disc length: 3702 seconds
#
# Revision: 1
# Processed by: cddbd v1.5.2PL0 Copyright (c) Steve Scherf et al.
# Submitted via: audiograbber 1.83.01
#
DISCID=0e0e7412
DTITLE=Various Artist - Promo Only Country Radio 2010 - 10
DYEAR=2010
DGENRE=Country
TTITLE0=Sugarland - Stuck Lie Glue
TTITLE1=Luke Bryan - Someone Else Calling You Baby
TTITLE2=Gretchen Wilson - I Got Your Country Right Here
TTITLE3=Matt Kennon - You Can Still Wear White
TTITLE4=Trailor Choir - Shakin' That Tailgate
TTITLE5=Thompson Square - Are You Gonna Kiss Me or Not
TTITLE6=Brad Paisley - Anything Like Me
TTITLE7=Dierks Bentley - Draw Me A Map
TTITLE8=Emerson Drive - That Kind of Beautiful
TTITLE9=Laura Bell Bundy - Drop On By
TTITLE10=Los Lobos - Burn It Down
TTITLE11=Martin Ramey - Twisted
TTITLE12=Joanna Smith - Gettin' Married
TTITLE13=FlynvilleTrain - Preachin' to the Choir
TTITLE14=Blaine Larsen - Leavin'
TTITLE15=Adam Brand - Ready For Love
TTITLE16=Clay Walker - Where Do I Go from You
TTITLE17=Gwyneth Paltrow - Country Strong
EXTD=
EXTT0=
EXTT1=
EXTT2=
EXTT3=
EXTT4=
EXTT5=
EXTT6=
EXTT7=
EXTT8=
EXTT9=
EXTT10=
EXTT11=
EXTT12=
EXTT13=
EXTT14=
EXTT15=
EXTT16=
EXTT17=
PLAYORDER=
